<svg xmlns="http://www.w3.org/2000/svg" xmlns:xlink="http://www.w3.org/1999/xlink" width="500" zoomAndPan="magnify" viewBox="0 0 375 374.999991" height="500" preserveAspectRatio="xMidYMid meet" version="1.0"><defs><clipPath id="542b0dc425"><path d="M 78.449219 80 L 161 80 L 161 162 L 78.449219 162 Z M 78.449219 80 " clip-rule="nonzero"/></clipPath><clipPath id="9d7b194edb"><path d="M 213 214 L 295 214 L 295 296.886719 L 213 296.886719 Z M 213 214 " clip-rule="nonzero"/></clipPath><clipPath id="04c3b5e9cd"><path d="M 58 199 L 175 199 L 175 319 L 58 319 Z M 58 199 " clip-rule="nonzero"/></clipPath><clipPath id="1088597b8d"><path d="M 0.00390625 257.75 L 71.242188 187.929688 L 187.257812 306.308594 L 116.019531 376.128906 Z M 0.00390625 257.75 " clip-rule="nonzero"/></clipPath><clipPath id="4e18c400a0"><path d="M 17.324219 275.425781 L 98.503906 358.257812 C 108.074219 368.019531 123.742188 368.179688 133.503906 358.609375 L 169.359375 323.472656 C 179.121094 313.90625 179.277344 298.234375 169.710938 288.472656 L 88.53125 205.640625 C 78.964844 195.878906 63.292969 195.722656 53.53125 205.289062 L 17.679688 240.425781 C 7.917969 249.996094 7.757812 265.664062 17.324219 275.425781 Z M 17.324219 275.425781 " clip-rule="nonzero"/></clipPath><clipPath id="8bae19b330"><path d="M 0.00390625 257.75 L 71.242188 187.929688 L 187.257812 306.308594 L 116.019531 376.128906 Z M 0.00390625 257.75 " clip-rule="nonzero"/></clipPath><clipPath id="a0fb3310ac"><path d="M 0.00390625 257.75 L 71.242188 187.929688 L 187.257812 306.308594 L 116.019531 376.128906 Z M 0.00390625 257.75 " clip-rule="nonzero"/></clipPath><clipPath id="2b3e649243"><path d="M 0.00390625 257.75 L 71.242188 187.929688 L 187.257812 306.308594 L 116.019531 376.128906 Z M 0.00390625 257.75 " clip-rule="nonzero"/></clipPath><clipPath id="00f88794c3"><path d="M 197 10 L 364 10 L 364 178 L 197 178 Z M 197 10 " clip-rule="nonzero"/></clipPath><clipPath id="156be05e63"><path d="M 187.035156 69.78125 L 258.277344 -0.0390625 L 374.292969 118.339844 L 303.050781 188.160156 Z M 187.035156 69.78125 " clip-rule="nonzero"/></clipPath><clipPath id="3bd5edeb0d"><path d="M 204.359375 87.457031 L 285.539062 170.289062 C 295.105469 180.050781 310.773438 180.207031 320.539062 170.640625 L 356.390625 135.503906 C 366.152344 125.9375 366.3125 110.265625 356.742188 100.503906 L 275.566406 17.671875 C 265.996094 7.910156 250.328125 7.75 240.566406 17.320312 L 204.710938 52.457031 C 194.949219 62.023438 194.789062 77.695312 204.359375 87.457031 Z M 204.359375 87.457031 " clip-rule="nonzero"/></clipPath><clipPath id="d0e65da82c"><path d="M 187.035156 69.78125 L 258.277344 -0.0390625 L 374.292969 118.339844 L 303.050781 188.160156 Z M 187.035156 69.78125 " clip-rule="nonzero"/></clipPath><clipPath id="11cfebcad9"><path d="M 1 48 L 120 48 L 120 166 L 1 166 Z M 1 48 " clip-rule="nonzero"/></clipPath><clipPath id="2e5e4a7fea"><path d="M -9.964844 59.78125 L 61.277344 -10.039062 L 177.292969 108.339844 L 106.050781 178.160156 Z M -9.964844 59.78125 " clip-rule="nonzero"/></clipPath><clipPath id="75054c89f9"><path d="M 7.359375 77.457031 L 88.539062 160.289062 C 98.105469 170.050781 113.773438 170.207031 123.539062 160.640625 L 159.390625 125.503906 C 169.152344 115.9375 169.3125 100.265625 159.742188 90.503906 L 78.566406 7.671875 C 68.996094 -2.089844 53.328125 -2.25 43.566406 7.320312 L 7.710938 42.457031 C -2.050781 52.023438 -2.210938 67.695312 7.359375 77.457031 Z M 7.359375 77.457031 " clip-rule="nonzero"/></clipPath><clipPath id="06a594f8f9"><path d="M -9.964844 59.78125 L 61.277344 -10.039062 L 177.292969 108.339844 L 106.050781 178.160156 Z M -9.964844 59.78125 " clip-rule="nonzero"/></clipPath><clipPath id="11a01a792d"><path d="M 61.234375 -10 L -10.007812 59.820312 L 106.007812 178.199219 L 177.25 108.378906 Z M 61.234375 -10 " clip-rule="nonzero"/></clipPath><clipPath id="5e7c6d91b6"><path d="M 61.234375 -10 L -10.007812 59.820312 L 106.007812 178.199219 L 177.25 108.378906 Z M 61.234375 -10 " clip-rule="nonzero"/></clipPath><clipPath id="1041f61bc9"><rect x="0" width="167" y="0" height="168"/></clipPath></defs><path fill="#ed1c24" d="M 119.675781 93.535156 L 91.691406 121.511719 L 88.265625 118.089844 C 87.804688 117.625 87.398438 117.125 87.039062 116.582031 C 86.675781 116.039062 86.375 115.46875 86.125 114.867188 C 85.878906 114.265625 85.691406 113.644531 85.566406 113.003906 C 85.4375 112.367188 85.375 111.722656 85.375 111.070312 C 85.375 110.421875 85.4375 109.777344 85.566406 109.136719 C 85.691406 108.5 85.878906 107.878906 86.125 107.277344 C 86.375 106.675781 86.675781 106.101562 87.039062 105.5625 C 87.398438 105.019531 87.804688 104.515625 88.265625 104.054688 L 102.230469 90.109375 C 102.691406 89.648438 103.191406 89.238281 103.730469 88.875 C 104.273438 88.515625 104.84375 88.207031 105.445312 87.960938 C 106.046875 87.710938 106.664062 87.523438 107.304688 87.394531 C 107.941406 87.269531 108.585938 87.203125 109.234375 87.203125 C 109.886719 87.203125 110.53125 87.269531 111.167969 87.394531 C 111.808594 87.523438 112.425781 87.710938 113.027344 87.960938 C 113.628906 88.207031 114.199219 88.515625 114.742188 88.875 C 115.28125 89.238281 115.78125 89.648438 116.242188 90.109375 Z M 119.675781 93.535156 " fill-opacity="1" fill-rule="nonzero"/><path fill="#ed1c24" d="M 141.542969 171.367188 L 169.523438 143.386719 L 231.605469 205.472656 L 203.628906 233.449219 Z M 141.542969 171.367188 " fill-opacity="1" fill-rule="nonzero"/><g clip-path="url(#542b0dc425)"><path fill="#ed1c24" d="M 160.011719 93.492188 L 91.667969 161.835938 C 91.644531 161.835938 91.621094 161.8125 91.597656 161.789062 L 81.101562 151.292969 C 80.246094 150.445312 79.589844 149.464844 79.128906 148.351562 C 78.667969 147.238281 78.441406 146.078125 78.449219 144.875 C 78.449219 143.660156 78.683594 142.492188 79.152344 141.371094 C 79.621094 140.25 80.289062 139.261719 81.152344 138.40625 L 136.59375 82.96875 C 137.011719 82.546875 137.472656 82.167969 137.964844 81.835938 C 138.460938 81.5 138.984375 81.21875 139.535156 80.988281 C 140.085938 80.757812 140.65625 80.585938 141.238281 80.464844 C 141.824219 80.347656 142.414062 80.289062 143.011719 80.285156 C 143.609375 80.285156 144.203125 80.339844 144.789062 80.453125 C 145.375 80.566406 145.941406 80.738281 146.496094 80.964844 C 147.046875 81.191406 147.570312 81.46875 148.070312 81.800781 C 148.566406 82.128906 149.027344 82.503906 149.453125 82.921875 L 159.976562 93.445312 Z M 160.011719 93.492188 " fill-opacity="1" fill-rule="nonzero"/></g><path fill="#ed1c24" d="M 284.902344 272.785156 L 270.957031 286.75 C 270.496094 287.207031 269.992188 287.617188 269.449219 287.976562 C 268.910156 288.335938 268.335938 288.636719 267.734375 288.886719 C 267.132812 289.132812 266.511719 289.320312 265.875 289.445312 C 265.238281 289.570312 264.59375 289.632812 263.941406 289.632812 C 263.289062 289.632812 262.644531 289.570312 262.007812 289.445312 C 261.371094 289.320312 260.75 289.132812 260.148438 288.886719 C 259.546875 288.636719 258.972656 288.335938 258.433594 287.976562 C 257.890625 287.617188 257.386719 287.207031 256.925781 286.75 L 253.5 283.324219 L 281.480469 255.347656 L 284.902344 258.773438 C 285.363281 259.230469 285.773438 259.730469 286.136719 260.273438 C 286.5 260.8125 286.804688 261.382812 287.054688 261.984375 C 287.304688 262.585938 287.492188 263.207031 287.621094 263.84375 C 287.746094 264.480469 287.808594 265.125 287.808594 265.777344 C 287.808594 266.429688 287.746094 267.074219 287.621094 267.710938 C 287.492188 268.347656 287.304688 268.96875 287.054688 269.570312 C 286.804688 270.171875 286.5 270.742188 286.136719 271.28125 C 285.773438 271.824219 285.363281 272.324219 284.902344 272.785156 Z M 284.902344 272.785156 " fill-opacity="1" fill-rule="nonzero"/><g clip-path="url(#9d7b194edb)"><path fill="#ed1c24" d="M 292.046875 238.425781 L 236.605469 293.867188 C 236.179688 294.292969 235.71875 294.671875 235.21875 295.003906 C 234.71875 295.339844 234.195312 295.621094 233.640625 295.851562 C 233.085938 296.082031 232.511719 296.253906 231.921875 296.371094 C 231.335938 296.488281 230.738281 296.546875 230.140625 296.546875 C 229.539062 296.546875 228.945312 296.488281 228.355469 296.371094 C 227.765625 296.253906 227.195312 296.082031 226.640625 295.851562 C 226.085938 295.621094 225.558594 295.339844 225.058594 295.003906 C 224.558594 294.671875 224.097656 294.292969 223.675781 293.867188 L 213.222656 283.414062 C 213.1875 283.382812 213.15625 283.34375 213.132812 283.300781 L 281.480469 214.953125 L 292.046875 225.519531 C 292.46875 225.945312 292.847656 226.40625 293.179688 226.902344 C 293.511719 227.402344 293.792969 227.929688 294.019531 228.480469 C 294.25 229.035156 294.421875 229.605469 294.539062 230.195312 C 294.65625 230.78125 294.714844 231.375 294.714844 231.972656 C 294.714844 232.574219 294.65625 233.164062 294.539062 233.753906 C 294.421875 234.339844 294.25 234.910156 294.019531 235.464844 C 293.792969 236.019531 293.511719 236.546875 293.179688 237.042969 C 292.847656 237.542969 292.46875 238.003906 292.046875 238.425781 Z M 292.046875 238.425781 " fill-opacity="1" fill-rule="nonzero"/></g><path fill="#ed1c24" d="M 196.191406 110.339844 L 108.515625 198.015625 C 107.664062 198.875 106.679688 199.542969 105.566406 200.015625 C 104.449219 200.488281 103.285156 200.730469 102.074219 200.742188 L 101.964844 200.742188 C 100.769531 200.75 99.621094 200.523438 98.519531 200.066406 C 97.417969 199.609375 96.449219 198.957031 95.609375 198.105469 L 85.132812 187.652344 C 84.273438 186.792969 83.613281 185.800781 83.152344 184.675781 C 82.691406 183.550781 82.464844 182.382812 82.476562 181.167969 C 82.480469 179.949219 82.71875 178.777344 83.1875 177.65625 C 83.65625 176.53125 84.320312 175.539062 85.179688 174.679688 L 172.851562 87.003906 C 173.277344 86.582031 173.738281 86.203125 174.238281 85.871094 C 174.734375 85.539062 175.261719 85.257812 175.816406 85.027344 C 176.367188 84.796875 176.941406 84.625 177.527344 84.507812 C 178.113281 84.390625 178.707031 84.335938 179.308594 84.335938 C 179.90625 84.335938 180.5 84.390625 181.085938 84.507812 C 181.675781 84.625 182.246094 84.796875 182.800781 85.027344 C 183.351562 85.257812 183.878906 85.539062 184.378906 85.871094 C 184.875 86.203125 185.335938 86.582031 185.761719 87.003906 L 196.238281 97.476562 C 196.660156 97.902344 197.039062 98.359375 197.371094 98.859375 C 197.703125 99.355469 197.980469 99.878906 198.210938 100.433594 C 198.4375 100.984375 198.609375 101.554688 198.726562 102.140625 C 198.839844 102.730469 198.898438 103.320312 198.894531 103.917969 C 198.890625 104.515625 198.832031 105.109375 198.710938 105.695312 C 198.59375 106.28125 198.417969 106.851562 198.183594 107.402344 C 197.953125 107.953125 197.667969 108.476562 197.335938 108.96875 C 197 109.464844 196.617188 109.921875 196.191406 110.339844 Z M 196.191406 110.339844 " fill-opacity="1" fill-rule="nonzero"/><path fill="#ed1c24" d="M 290.652344 195.671875 C 290.652344 196.882812 290.417969 198.046875 289.953125 199.160156 C 289.488281 200.277344 288.828125 201.261719 287.972656 202.117188 L 200.292969 289.789062 C 199.421875 290.65625 198.417969 291.328125 197.285156 291.800781 C 196.148438 292.273438 194.96875 292.511719 193.738281 292.515625 C 192.542969 292.519531 191.390625 292.292969 190.285156 291.835938 C 189.179688 291.378906 188.207031 290.726562 187.359375 289.878906 L 176.867188 279.359375 C 176.003906 278.507812 175.34375 277.519531 174.882812 276.398438 C 174.425781 275.273438 174.207031 274.105469 174.226562 272.894531 C 174.238281 271.683594 174.480469 270.519531 174.953125 269.402344 C 175.425781 268.285156 176.089844 267.300781 176.953125 266.449219 L 264.628906 178.777344 C 265.050781 178.351562 265.507812 177.972656 266.003906 177.640625 C 266.5 177.308594 267.023438 177.027344 267.574219 176.796875 C 268.125 176.566406 268.691406 176.390625 269.277344 176.273438 C 269.863281 176.15625 270.453125 176.09375 271.050781 176.09375 C 271.648438 176.089844 272.238281 176.148438 272.824219 176.261719 C 273.410156 176.375 273.980469 176.546875 274.53125 176.773438 C 275.085938 177 275.609375 177.277344 276.109375 177.605469 C 276.605469 177.9375 277.066406 178.3125 277.492188 178.730469 L 288.011719 189.25 C 288.867188 190.097656 289.527344 191.078125 289.984375 192.195312 C 290.441406 193.308594 290.664062 194.46875 290.652344 195.671875 Z M 290.652344 195.671875 " fill-opacity="1" fill-rule="nonzero"/><g clip-path="url(#04c3b5e9cd)"><g clip-path="url(#1088597b8d)"><g clip-path="url(#4e18c400a0)"><g clip-path="url(#8bae19b330)"><g clip-path="url(#a0fb3310ac)"><g clip-path="url(#2b3e649243)"><path fill="#ffffff" d="M 174.695312 318.363281 L 58.210938 317.125 L 59.328125 199.832031 L 83.179688 200.082031 L 82.289062 293.527344 L 174.925781 294.515625 L 174.695312 318.363281 " fill-opacity="1" fill-rule="nonzero"/></g></g></g></g></g></g><g clip-path="url(#00f88794c3)"><g clip-path="url(#156be05e63)"><g clip-path="url(#3bd5edeb0d)"><g clip-path="url(#d0e65da82c)"><g transform="matrix(1, 0, 0, 1, 197, 10)"><g clip-path="url(#1041f61bc9)"><g clip-path="url(#11cfebcad9)"><g clip-path="url(#2e5e4a7fea)"><g clip-path="url(#75054c89f9)"><g clip-path="url(#06a594f8f9)"><g clip-path="url(#11a01a792d)"><g clip-path="url(#5e7c6d91b6)"><path fill="#ffffff" d="M 118.316406 165.882812 L 119.421875 49.398438 L 2.128906 48.148438 L 1.902344 72 L 95.34375 72.992188 L 94.464844 165.628906 L 118.316406 165.882812 " fill-opacity="1" fill-rule="nonzero"/></g></g></g></g></g></g></g></g></g></g></g></g></svg>